<?xml version="1.0" encoding="utf-8"?>
<svg version="1.0" width="480.000000pt" height="480.000000pt" viewBox="0 0 480.000000 480.000000" preserveAspectRatio="xMidYMid meet" xmlns="http://www.w3.org/2000/svg">
  <g transform="translate(0.000000,480.000000) scale(0.100000,-0.100000)" fill="#000000" stroke="none">
    <path d="M2260 3274 c-347 -67 -602 -282 -708 -599 -35 -102 -45 -188 -39 -324 11 -234 92 -417 257 -581 484 -479 1312 -254 1491 405 32 116 33 327 1 441 -55 205 -163 366 -325 486 -165 122 -304 169 -517 174 -74 1 -146 0 -160 -2z m243 -174 c199 -29 377 -140 486 -304 86 -129 123 -249 123 -402 0 -225 -100 -422 -286 -563 -140 -107 -273 -146 -461 -138 -172 7 -293 52 -421 156 -315 253 -351 725 -78 1020 173 186 392 266 637 231z" style="fill: rgb(217, 20, 38);"/>
    <path d="M2193 3000 c-174 -46 -314 -164 -394 -335 -59 -126 -75 -279 -43 -415 54 -232 250 -435 462 -479 76 -16 122 -14 122 4 0 11 -11 15 -39 15 -67 0 -193 46 -258 93 -203 150 -307 400 -259 625 53 253 255 447 491 471 46 5 61 10 63 24 5 23 -49 22 -145 -3z" style="fill: rgb(217, 20, 38);"/>
  </g>
</svg>