<?xml version="1.0" encoding="utf-8"?>
<svg version="1.0" width="480.000000pt" height="480.000000pt" viewBox="0 0 480.000000 480.000000" preserveAspectRatio="xMidYMid meet" xmlns="http://www.w3.org/2000/svg">
  <g transform="translate(0.000000,480.000000) scale(0.100000,-0.100000)" fill="#000000" stroke="none">
    <path d="M 2260 3274 C 1913 3207 1658 2992 1552 2675 C 1517 2573 1507 2487 1513 2351 C 1524 2117 1605 1934 1770 1770 C 2254 1291 3082 1516 3261 2175 C 3293 2291 3294 2502 3262 2616 C 3207 2821 3099 2982 2937 3102 C 2772 3224 2633 3271 2420 3276 C 2346 3277 2274 3276 2260 3274 Z M 3203.885 2372.567 C 3402.885 2343.567 2880 2960 2989 2796 C 3075 2667 2729.699 3269.124 2729.699 3116.124 C 2729.699 2891.124 3367.752 2502.973 3181.752 2361.973 C 3041.752 2254.973 3370.699 2460.221 3182.699 2468.221 C 3010.699 2475.221 2072 1745 1944 1849 C 1629 2102 2224.858 1405.858 2497.858 1700.858 C 2670.858 1886.858 2958.885 2407.567 3203.885 2372.567 Z" style="fill-rule: nonzero; paint-order: stroke; fill: rgb(217, 20, 38);"/>
    <path d="M2193 3000 c-174 -46 -314 -164 -394 -335 -59 -126 -75 -279 -43 -415 54 -232 250 -435 462 -479 76 -16 122 -14 122 4 0 11 -11 15 -39 15 -67 0 -193 46 -258 93 -203 150 -307 400 -259 625 53 253 255 447 491 471 46 5 61 10 63 24 5 23 -49 22 -145 -3z" style="fill-rule: nonzero; paint-order: stroke; fill: rgb(217, 20, 38);"/>
  </g>
</svg>